<?xml version="1.0" encoding="UTF-8" standalone="no"?>
<!-- Created with Inkscape (http://www.inkscape.org/) -->

<svg
   width="9mm"
   height="5.5425181mm"
   viewBox="0 0 9.0000001 5.5425182"
   version="1.1"
   id="svg1"
   xml:space="preserve"
   inkscape:version="1.3 (0e150ed, 2023-07-21)"
   sodipodi:docname="squiggle.svg"
   xmlns:inkscape="http://www.inkscape.org/namespaces/inkscape"
   xmlns:sodipodi="http://sodipodi.sourceforge.net/DTD/sodipodi-0.dtd"
   xmlns="http://www.w3.org/2000/svg"
   xmlns:svg="http://www.w3.org/2000/svg"><sodipodi:namedview
     id="namedview1"
     pagecolor="#ffffff"
     bordercolor="#000000"
     borderopacity="0.25"
     inkscape:showpageshadow="2"
     inkscape:pageopacity="0.0"
     inkscape:pagecheckerboard="0"
     inkscape:deskcolor="#d1d1d1"
     inkscape:document-units="mm"
     inkscape:zoom="3.3885244"
     inkscape:cx="7.8205132"
     inkscape:cy="7.6729564"
     inkscape:window-width="1696"
     inkscape:window-height="1027"
     inkscape:window-x="0"
     inkscape:window-y="25"
     inkscape:window-maximized="0"
     inkscape:current-layer="layer1" /><defs
     id="defs1" /><g
     inkscape:label="Vrstva 1"
     inkscape:groupmode="layer"
     id="layer1"
     transform="translate(-64.551552,-229.41995)"><path
       style="fill:#000000;stroke-width:0.999999"
       d="m 67.00095,234.94334 c -0.223105,-0.032 -0.436752,-0.10763 -0.643939,-0.1939 -0.198528,-0.0738 -0.404432,-0.12985 -0.592367,-0.22978 -0.288697,-0.14595 -0.561759,-0.33155 -0.782839,-0.56922 -0.210196,-0.23668 -0.355839,-0.5317 -0.414836,-0.84262 -0.02105,-0.20195 -0.02132,-0.40703 0.004,-0.60858 0.05087,-0.24453 0.153894,-0.47659 0.281057,-0.69067 0.277681,-0.43281 0.683389,-0.76986 1.121741,-1.03125 0.217155,-0.13353 0.463271,-0.22033 0.658721,-0.38787 0.474805,-0.3646 1.008543,-0.66096 1.584282,-0.83099 0.31628,-0.0866 0.643926,-0.14105 0.972477,-0.13842 0.291519,0.014 0.583562,0.0716 0.852739,0.18581 0.38943,0.1799 0.712351,0.52679 0.81342,0.94955 0.03775,0.13668 0.05555,0.27813 0.05584,0.41974 0.01383,0.0782 0.10346,0.10377 0.157517,0.14962 0.16779,0.12653 0.308797,0.29489 0.388758,0.49024 0.08011,0.20183 0.114275,0.423 0.08185,0.6387 -0.03439,0.31806 -0.156204,0.62356 -0.341665,0.88352 -0.384428,0.55225 -0.948308,0.95495 -1.549809,1.24211 -0.322725,0.16152 -0.669266,0.2685 -1.01702,0.36101 -0.228246,0.0625 -0.466373,0.0777 -0.693204,0.14595 -0.30522,0.073 -0.624921,0.0968 -0.936721,0.0571 z m 0.566056,-0.34873 c 0.277581,-0.0352 0.541995,-0.13789 0.787547,-0.26909 0.39648,-0.21593 0.720542,-0.54479 0.98409,-0.90737 0.03423,-0.0733 -0.0748,0.0247 -0.10087,0.0345 -0.241034,0.1533 -0.494097,0.28725 -0.75461,0.40455 -0.411731,0.1736 -0.850542,0.30017 -1.299444,0.3144 -0.324951,0.005 -0.652935,-0.0515 -0.950327,-0.18461 -0.03908,0.0399 0.03367,0.12933 0.05754,0.1813 0.111054,0.19158 0.305617,0.32473 0.519284,0.37615 0.240185,0.0747 0.495964,0.0789 0.744176,0.052 z m 1.534457,-0.33186 c 0.177405,-0.0786 0.358447,-0.14928 0.529296,-0.24196 0.512204,-0.2569 0.982839,-0.61951 1.307322,-1.09656 0.127155,-0.19353 0.235303,-0.40798 0.267659,-0.63957 0.0096,-0.13195 0.01627,-0.26668 -0.0067,-0.39751 -0.05084,-0.19576 -0.173495,-0.36945 -0.332254,-0.49301 -0.05744,0.002 -0.04484,0.11952 -0.07774,0.16642 -0.15155,0.40826 -0.394769,0.77639 -0.673149,1.1089 -0.08242,0.0947 -0.156782,0.19852 -0.195804,0.31924 -0.162452,0.38631 -0.392963,0.74459 -0.67633,1.0533 -0.07901,0.0891 -0.173337,0.16223 -0.259357,0.24379 -0.03692,0.0544 0.112963,-0.0266 0.11697,-0.0229 z m -3.164776,-0.1064 c -0.06158,-0.12478 -0.08461,-0.26361 -0.09803,-0.40075 -0.02299,-0.0812 -0.09966,-0.13143 -0.142082,-0.20211 -0.251657,-0.35511 -0.30896,-0.81609 -0.240453,-1.23803 0.05805,-0.35432 0.194729,-0.69381 0.389543,-0.99484 0.04781,-0.0588 -0.0025,-0.0677 -0.04484,-0.0261 -0.201573,0.1421 -0.376479,0.31963 -0.534612,0.508 -0.236584,0.30359 -0.41198,0.67896 -0.394932,1.07131 0.01347,0.32359 0.154157,0.63709 0.379338,0.86884 0.187751,0.20198 0.420149,0.35989 0.670095,0.47456 0.0699,0.0299 0.02823,-0.0317 0.01592,-0.0609 z m 1.596795,-0.35142 c 0.369072,-0.066 0.724991,-0.19336 1.058933,-0.36265 0.348155,-0.17812 0.686142,-0.38827 0.963922,-0.66619 0.116689,-0.11445 0.185305,-0.26994 0.206702,-0.43087 0.0193,-0.14157 0.04342,-0.28556 0.01592,-0.42775 -0.03243,-0.21311 -0.09412,-0.42561 -0.217561,-0.60495 -0.0468,-0.0599 -0.08127,-0.1505 -0.163134,-0.16748 -0.13811,-0.002 -0.273511,0.035 -0.409419,0.0557 -0.26805,0.0539 -0.534385,0.12408 -0.78605,0.23232 -0.339602,0.13124 -0.654506,0.32007 -0.950934,0.52996 -0.369965,0.26422 -0.68569,0.60986 -0.896792,1.01367 -0.08143,0.1687 -0.155224,0.34811 -0.164622,0.53734 -0.01592,0.091 0.08468,0.11865 0.146632,0.15417 0.172357,0.0901 0.364685,0.13247 0.555532,0.16152 0.210169,0.005 0.421206,-0.001 0.630371,-0.0228 z m -1.573497,-0.7148 c 0.189404,-0.54791 0.583387,-1.00257 1.040273,-1.34881 0.280203,-0.21259 0.585561,-0.39184 0.905668,-0.53725 0.336596,-0.15225 0.693362,-0.25518 1.05521,-0.32679 0.0445,-0.005 0.106644,-0.0289 0.03085,-0.0536 -0.277111,-0.14 -0.587767,-0.20281 -0.89543,-0.22705 -0.20813,-0.014 -0.417479,-0.004 -0.623952,0.0243 -0.168454,0.0105 -0.332971,0.0549 -0.496926,0.0933 -0.16527,0.0429 -0.339478,0.0941 -0.458913,0.22407 -0.252122,0.25767 -0.441792,0.57165 -0.584848,0.90107 -0.07063,0.16468 -0.120628,0.33844 -0.151077,0.51476 -0.01138,0.1729 -0.02772,0.34843 -8.39e-4,0.52068 0.02718,0.12582 0.05668,0.25387 0.112927,0.37028 0.0309,-0.0157 0.04623,-0.1148 0.06706,-0.15487 z m 4.298383,-1.18835 c 0.124145,-0.20223 0.220804,-0.42329 0.271865,-0.65545 -0.05194,-0.0474 -0.149869,-0.0465 -0.221399,-0.0681 -0.144532,-0.0273 -0.292832,-0.0444 -0.439894,-0.0348 -0.0038,0.0571 0.06718,0.1316 0.08671,0.197 0.09466,0.20078 0.125702,0.42381 0.147017,0.64263 0.0051,0.0623 0.0031,0.12495 0.0037,0.18748 0.04853,-0.0908 0.09763,-0.18123 0.151935,-0.26868 z m 0.318324,-1.03042 c -0.003,-0.10657 -0.03288,-0.21206 -0.06533,-0.31346 -0.09718,-0.28332 -0.327757,-0.5055 -0.597571,-0.62716 -0.347208,-0.16957 -0.747004,-0.18685 -1.124866,-0.1442 -0.302216,0.0401 -0.595413,0.13143 -0.880202,0.23784 -0.189554,0.0844 -0.380858,0.16625 -0.562429,0.26691 -0.0311,0.039 0.07936,0.004 0.105297,0.004 0.145827,-0.0263 0.292164,-0.056 0.441247,-0.0499 0.317285,0.002 0.637437,0.0387 0.937532,0.14595 0.271569,0.0943 0.536406,0.22207 0.754153,0.41256 0.316446,0.001 0.637391,-0.0122 0.94623,0.0704 0.01278,-7.7e-4 0.03755,0.0157 0.04594,-0.002 z"
       id="path2" /></g></svg>
